<svg width="22" height="21" viewBox="0 0 22 21" fill="none" xmlns="http://www.w3.org/2000/svg">
<path d="M18.0624 0.851286L2.66075 3.64326C2.05369 3.75445 1.49574 4.0502 1.06299 4.49018C0.630245 4.93015 0.343751 5.49295 0.242573 6.10182C0.141395 6.7107 0.230457 7.33603 0.497616 7.89256C0.764775 8.44908 1.19703 8.90972 1.73545 9.21166L6.87716 12.071C6.99861 12.1422 7.10467 12.237 7.18912 12.3497C7.27357 12.4624 7.33474 12.5908 7.36904 12.7273L8.66985 18.465C8.78114 18.9525 9.01246 19.4045 9.3428 19.7799C9.67314 20.1553 10.092 20.4422 10.5614 20.6146C11.0307 20.787 11.5357 20.8393 12.0304 20.7669C12.525 20.6945 12.9937 20.4996 13.3938 20.1999C13.7657 19.9154 14.0692 19.5513 14.2821 19.1342L21.2857 5.13577C21.5332 4.63801 21.6376 4.08122 21.5871 3.52752C21.5366 2.97381 21.3333 2.44497 20.9998 2C20.6664 1.55503 20.2159 1.21143 19.6986 1.00754C19.1814 0.80364 18.6177 0.747469 18.0704 0.845289L18.0624 0.851286ZM19.4918 4.24263L12.4882 18.2411C12.394 18.422 12.2468 18.5697 12.0663 18.6645C11.8857 18.7594 11.6805 18.7967 11.4781 18.7716C11.2757 18.7464 11.0858 18.66 10.9339 18.5239C10.7819 18.3878 10.6752 18.2085 10.6281 18.01L9.31928 12.2783C9.30102 12.2024 9.27833 12.1276 9.25132 12.0543L14.7646 7.92263C14.9768 7.76359 15.1172 7.52673 15.1547 7.26416C15.1923 7.00158 15.124 6.73481 14.965 6.52251C14.8059 6.31021 14.569 6.16979 14.3064 6.13213C14.0439 6.09448 13.7771 6.16267 13.5649 6.32171L8.0516 10.4533C7.98883 10.4068 7.92339 10.3641 7.85561 10.3252L2.7219 7.45992C2.54467 7.35894 2.40253 7.20619 2.31454 7.02216C2.22655 6.83813 2.19691 6.63161 2.2296 6.43029C2.26229 6.22897 2.35575 6.04248 2.49744 5.89583C2.63913 5.74917 2.82228 5.64936 3.02234 5.60978L18.424 2.81781C18.6054 2.78676 18.7919 2.80638 18.9629 2.87452C19.1339 2.94265 19.2828 3.05666 19.3932 3.20398C19.5036 3.3513 19.5712 3.52623 19.5886 3.70949C19.606 3.89274 19.5725 4.07723 19.4918 4.24263Z" fill="black"/>
</svg>
